# xmcd CD database file
#
# Track frame offsets:
#	150
#	1437
#	24472
#	42359
#	62529
#	78616
#	95826
#	116676
#	138726
#	160412
#
# Disc length: 2569 seconds
#
# Revision: 0
# Processed by: cddbd v1.5.1PL2 Copyright (c) Steve Scherf et al.
# Submitted via: CDex 1.51
#
DISCID=860a070a
DTITLE=Breaking Benjamin - 2004-04-21-The Starland Ballroom-Sayreville, NJ
DYEAR=2004
DGENRE=Blues
TTITLE0=Intro
TTITLE1=Wish I May
TTITLE2=Water
TTITLE3=Phase
TTITLE4=Polyamorous
TTITLE5=Home
TTITLE6=Natural Life
TTITLE7=Simple Design
TTITLE8=So Cold
TTITLE9=Shallow Bay
EXTD=YEAR: 2004
EXTT0=
EXTT1=
EXTT2=
EXTT3=
EXTT4=
EXTT5=
EXTT6=
EXTT7=
EXTT8=
EXTT9=
PLAYORDER=
